<svg xmlns="http://www.w3.org/2000/svg" width="202" height="386" viewBox="0 0 202 386"><defs><style>.a{fill:#fff6df;}.b{fill:#fdd08d;}.c{fill:#ffce3b;}.d{fill:#feae06;}</style></defs><path class="a" d="M0,0H4.5A96.5,96.5,0,0,1,101,96.5v0A96.5,96.5,0,0,1,4.5,193H0a0,0,0,0,1,0,0V0A0,0,0,0,1,0,0Z" transform="translate(101 386) rotate(180)"/><path class="b" d="M0,0H4.5A96.5,96.5,0,0,1,101,96.5v0A96.5,96.5,0,0,1,4.5,193H0a0,0,0,0,1,0,0V0A0,0,0,0,1,0,0Z" transform="translate(101)"/><path class="c" d="M0,0H7A92,92,0,0,1,99,92v0a0,0,0,0,1,0,0H92A92,92,0,0,1,0,0V0A0,0,0,0,1,0,0Z" transform="translate(201 285) rotate(180)"/><circle class="d" cx="34.5" cy="34.5" r="34.5" transform="translate(102 131) rotate(180)"/></svg>