<svg xmlns="http://www.w3.org/2000/svg" width="270" height="516" viewBox="0 0 270 516"><defs><style>.a{fill:#fdd08d;}.b{fill:#fff6df;}.c{fill:#feae06;}.d{fill:#ffce3b;}</style></defs><path class="a" d="M0,0H6A129,129,0,0,1,135,129v0A129,129,0,0,1,6,258H0a0,0,0,0,1,0,0V0A0,0,0,0,1,0,0Z" transform="translate(135)"/><path class="b" d="M0,0H6A129,129,0,0,1,135,129v0A129,129,0,0,1,6,258H0a0,0,0,0,1,0,0V0A0,0,0,0,1,0,0Z" transform="translate(135 516) rotate(180)"/><path class="c" d="M0,0H10A123,123,0,0,1,133,123v0a0,0,0,0,1,0,0H123A123,123,0,0,1,0,0V0A0,0,0,0,1,0,0Z" transform="translate(1 135)"/><circle class="d" cx="46" cy="46" r="46" transform="translate(134 341)"/></svg>