<svg xmlns="http://www.w3.org/2000/svg" width="1920" height="936" viewBox="0 0 1920 936"><defs><style>.a{fill:#feecba;}.b{fill:#ffe087;}.c{fill:#fff0c9;}.d{fill:#ffd472;}</style></defs><rect class="a" width="1920" height="936"/><path class="b" d="M0,0H0A178,178,0,0,1,178,178v0a0,0,0,0,1,0,0H0a0,0,0,0,1,0,0V0A0,0,0,0,1,0,0Z" transform="translate(1387 225)"/><path class="c" d="M0,0H0A108,108,0,0,1,108,108v0a0,0,0,0,1,0,0H0a0,0,0,0,1,0,0V0A0,0,0,0,1,0,0Z" transform="translate(1511 171)"/><path class="c" d="M0,0H0A233,233,0,0,1,233,233v0a0,0,0,0,1,0,0H0a0,0,0,0,1,0,0V0A0,0,0,0,1,0,0Z" transform="translate(0 703)"/><path class="b" d="M0,0H0A123,123,0,0,1,123,123v0a0,0,0,0,1,0,0H0a0,0,0,0,1,0,0V0A0,0,0,0,1,0,0Z" transform="translate(326 399) rotate(180)"/><path class="c" d="M0,0H0A123,123,0,0,1,123,123v0a0,0,0,0,1,0,0H0a0,0,0,0,1,0,0V0A0,0,0,0,1,0,0Z" transform="translate(203 276) rotate(-90)"/><path class="c" d="M0,0H0A123,123,0,0,1,123,123v0a0,0,0,0,1,0,0H0a0,0,0,0,1,0,0V0A0,0,0,0,1,0,0Z" transform="translate(1585 936) rotate(-90)"/><path class="b" d="M0,0H0A123,123,0,0,1,123,123v0a0,0,0,0,1,0,0H0a0,0,0,0,1,0,0V0A0,0,0,0,1,0,0Z" transform="translate(1585 813) rotate(-90)"/><path class="b" d="M0,0H0A123,123,0,0,1,123,123v0a0,0,0,0,1,0,0H0a0,0,0,0,1,0,0V0A0,0,0,0,1,0,0Z" transform="translate(387 653) rotate(-90)"/><path class="d" d="M0,0H154A150,150,0,0,1,304,150v94a0,0,0,0,1,0,0H150A150,150,0,0,1,0,94V0A0,0,0,0,1,0,0Z" transform="translate(1281 692)"/><path class="b" d="M0,0H49a81,81,0,0,1,81,81v0a0,0,0,0,1,0,0H81A81,81,0,0,1,0,0V0A0,0,0,0,1,0,0Z" transform="translate(326 276) rotate(-90)"/><path class="d" d="M0,0H0A63,63,0,0,1,63,63v4a0,0,0,0,1,0,0h0A63,63,0,0,1,0,4V0A0,0,0,0,1,0,0Z" transform="translate(1552 342) rotate(-90)"/><path class="d" d="M0,0H117A123,123,0,0,1,240,123v0a0,0,0,0,1,0,0H123A123,123,0,0,1,0,0V0A0,0,0,0,1,0,0Z" transform="translate(326 276)"/><path class="d" d="M0,0H89A123,123,0,0,1,212,123v0a0,0,0,0,1,0,0H123A123,123,0,0,1,0,0V0A0,0,0,0,1,0,0Z" transform="translate(1708 813)"/><path class="b" d="M0,0H0A117,117,0,0,1,117,117v0a0,0,0,0,1,0,0H0a0,0,0,0,1,0,0V0A0,0,0,0,1,0,0Z" transform="translate(0 819)"/></svg>