<svg xmlns="http://www.w3.org/2000/svg" xmlns:xlink="http://www.w3.org/1999/xlink" width="337" height="633" viewBox="0 0 337 633"><defs><style>.a{fill:url(#a);}.b,.g,.i{fill:none;}.b,.g{stroke:#fff;stroke-width:2px;}.b{opacity:0.2;}.c{fill:#fff;}.d{fill:url(#g);}.e{fill:url(#j);}.f{fill:url(#m);}.g{opacity:0.18;}.h{stroke:none;}.j{filter:url(#p);}.k{filter:url(#n);}.l{filter:url(#k);}.m{filter:url(#h);}.n{filter:url(#e);}.o{filter:url(#b);}</style><linearGradient id="a" x1="0.032" y1="0.03" x2="0.95" y2="1" gradientUnits="objectBoundingBox"><stop offset="0" stop-color="#e8ebf2"/><stop offset="1" stop-color="#f2f3f7"/></linearGradient><filter id="b" x="0" y="0" width="337" height="633" filterUnits="userSpaceOnUse"><feOffset dx="10" dy="10" input="SourceAlpha"/><feGaussianBlur stdDeviation="8" result="c"/><feFlood flood-color="#0f296b" flood-opacity="0.118"/><feComposite operator="in" in2="c"/><feComposite in="SourceGraphic"/></filter><filter id="e" x="0" y="0" width="337" height="633" filterUnits="userSpaceOnUse"><feOffset dx="10" dy="10" input="SourceAlpha"/><feGaussianBlur stdDeviation="8" result="f"/><feFlood flood-color="#0f296b" flood-opacity="0.118"/><feComposite operator="in" in2="f"/><feComposite in="SourceGraphic"/></filter><linearGradient id="g" x1="0.129" y1="0.099" x2="1.053" y2="1.069" xlink:href="#a"/><filter id="h" x="73" y="241" width="193" height="193" filterUnits="userSpaceOnUse"><feOffset dx="10" dy="10" input="SourceAlpha"/><feGaussianBlur stdDeviation="8" result="i"/><feFlood flood-color="#0f296b" flood-opacity="0.118"/><feComposite operator="in" in2="i"/><feComposite in="SourceGraphic"/></filter><linearGradient id="j" x1="0.281" y1="-0.053" x2="0.754" y2="0.936" gradientUnits="objectBoundingBox"><stop offset="0" stop-color="#18843f"/><stop offset="1" stop-color="#0c4220"/></linearGradient><filter id="k" x="114.648" y="278.752" width="91.647" height="113.669" filterUnits="userSpaceOnUse"><feOffset dy="3" input="SourceAlpha"/><feGaussianBlur stdDeviation="3" result="l"/><feFlood flood-opacity="0.161"/><feComposite operator="in" in2="l"/><feComposite in="SourceGraphic"/></filter><linearGradient id="m" x1="0.086" y1="0" x2="0.916" y2="0.978" xlink:href="#a"/><filter id="n" x="56" y="224" width="226" height="226" filterUnits="userSpaceOnUse"><feOffset dx="10" dy="10" input="SourceAlpha"/><feGaussianBlur stdDeviation="8" result="o"/><feFlood flood-color="#0f296b" flood-opacity="0.118"/><feComposite operator="in" in2="o"/><feComposite in="SourceGraphic"/></filter><filter id="p" x="73" y="241" width="193" height="193" filterUnits="userSpaceOnUse"><feOffset dx="10" dy="10" input="SourceAlpha"/><feGaussianBlur stdDeviation="8" result="q"/><feFlood flood-color="#0f296b" flood-opacity="0.118"/><feComposite operator="in" in2="q"/><feComposite in="SourceGraphic"/></filter></defs><g transform="translate(14 14)"><g class="o" transform="matrix(1, 0, 0, 1, -14, -14)"><rect class="a" width="289" height="585" rx="32" transform="translate(14 14)"/></g><g class="n" transform="matrix(1, 0, 0, 1, -14, -14)"><path class="a" d="M257,585H32A31.974,31.974,0,0,1,0,553V32A31.974,31.974,0,0,1,32,0H257a31.974,31.974,0,0,1,32,32V553a31.973,31.973,0,0,1-32,32ZM37,11A23.026,23.026,0,0,0,14,34V551a23.026,23.026,0,0,0,23,23H252a23.026,23.026,0,0,0,23-23V34a23.026,23.026,0,0,0-23-23Z" transform="translate(14 14)"/></g><g class="b"><rect class="h" width="289" height="585" rx="32"/><rect class="i" x="1" y="1" width="287" height="583" rx="31"/></g><rect class="c" width="145" height="145" rx="72.5" transform="translate(71 240)"/><g class="m" transform="matrix(1, 0, 0, 1, -14, -14)"><rect class="d" width="145" height="145" rx="72.5" transform="translate(87 255)"/></g><g class="l" transform="matrix(1, 0, 0, 1, -14, -14)"><path class="e" d="M43.5,20.591c-.884-.272-2.357-1.386-2.5-4.922S40.653.141,24.779,0,9.805,5.41,9.736,9.915c0,0,4.367-3.189,7.9-.555s12.339,6.378,11.785,8.111-2.981,1.386-5.754,0-13.379-4.783-13.379-4.783S.933,23.849,2.458,33.138c0,0,5.962-5.823,7.972-6.308a28.051,28.051,0,0,0,6.1-2.5c.832-.555,9.22,1.178,9.22,2.149s-6.308,2.357-8.457,2.426-15.25.416-16.914,9.7,2.7,14.419,2.7,14.419,7-13.795,14.211-15.043,8.8.763,7.764,2.08S3.775,46.586,4.953,58.856c0,0,.485,5.753,4.645,9.011,0,0-2.01-6.169,4.991-12.547s6.031-1.594,5.476-.832S7.657,64.956,12.024,75.354s12.339,11.3,12.339,11.3-.9-4.09,1.04-5.754,14.765-5.13,15.528-7.556c0,0-1.456-13.1-4.229-18.37s-3.119-8.111-1.872-8.735,3.536,4.644,3.743,6.724S44.4,71.611,44.4,71.611l4.09-8.6S42.733,46.309,42.04,44.229s.693-4.367,2.288-1.248,7.279,18.578,7.279,18.578,1.941-6.377,1.941-8.665,4.09-3.813,3.258-6.377-10.121-14.28-10.121-14.28-.208-2.218,2.5-1.178,6.932,5.476,6.169,10.121c0,0,8.2-6.793,1.567-15.736,0,0-3.162-3.119-1.29-4.3s-3.05-7.14-6.308-4.09S45.3,21.145,43.5,20.591Z" transform="matrix(0.98, 0.17, -0.17, 0.98, 138.7, 284.75)"/></g><g class="k" transform="matrix(1, 0, 0, 1, -14, -14)"><path class="f" d="M89.722,178A87.877,87.877,0,0,1,39.73,162.49a88.923,88.923,0,0,1-13.148-11.073,88.456,88.456,0,0,1-19.441-28.3,88.16,88.16,0,0,1,7.935-84.2A88.536,88.536,0,0,1,53.916,6.937,88.163,88.163,0,0,1,138.27,15.51a88.932,88.932,0,0,1,13.148,11.073,88.452,88.452,0,0,1,19.441,28.3,88.162,88.162,0,0,1-7.936,84.2,88.536,88.536,0,0,1-38.84,31.984A87.725,87.725,0,0,1,89.722,178ZM88.278,7.216a81.062,81.062,0,0,0-56.587,139.1A81.062,81.062,0,1,0,146.322,31.692,80.435,80.435,0,0,0,88.278,7.216Z" transform="translate(70 238)"/></g><g class="j" transform="matrix(1, 0, 0, 1, -14, -14)"><g class="g" transform="translate(87 255)"><rect class="h" width="145" height="145" rx="72.5"/><rect class="i" x="1" y="1" width="143" height="143" rx="71.5"/></g></g></g></svg>