<svg xmlns="http://www.w3.org/2000/svg" xmlns:xlink="http://www.w3.org/1999/xlink" width="2138.931" height="1125.867" viewBox="0 0 2138.931 1125.867"><defs><style>.a{fill:#023d39;}.b{fill:#163b3a;}.c{fill:#0a4c48;}.d,.h{fill:none;stroke:#fff;stroke-width:2px;}.d{opacity:0.08;}.e{fill:#0c514d;}.f{fill:#145e5a;}.g,.i{fill:#1d4341;}.h{opacity:0.06;}.i{opacity:0.61;}.j{fill:#f1f2f7;}.k,.l{stroke:none;}.l{fill:#707070;}.m{filter:url(#u);}.n{filter:url(#s);}.o{filter:url(#q);}.p{filter:url(#o);}.q{filter:url(#m);}.r{filter:url(#k);}.s{filter:url(#i);}.t{filter:url(#g);}.u{filter:url(#e);}.v{filter:url(#c);}.w{filter:url(#a);}</style><filter id="a" x="203.502" y="252.182" width="281.334" height="276.602" filterUnits="userSpaceOnUse"><feOffset dy="3" input="SourceAlpha"/><feGaussianBlur stdDeviation="3" result="b"/><feFlood flood-opacity="0.161"/><feComposite operator="in" in2="b"/><feComposite in="SourceGraphic"/></filter><filter id="c" x="207.726" y="380.467" width="208.607" height="192.314" filterUnits="userSpaceOnUse"><feOffset dy="3" input="SourceAlpha"/><feGaussianBlur stdDeviation="3" result="d"/><feFlood flood-opacity="0.161"/><feComposite operator="in" in2="d"/><feComposite in="SourceGraphic"/></filter><filter id="e" x="104.814" y="110.201" width="621.314" height="969.012" filterUnits="userSpaceOnUse"><feOffset dx="6" dy="6" input="SourceAlpha"/><feGaussianBlur stdDeviation="4" result="f"/><feFlood flood-color="#0c3a2d" flood-opacity="0.6"/><feComposite operator="in" in2="f"/><feComposite in="SourceGraphic"/></filter><filter id="g" x="1485.469" y="66.549" width="602.481" height="1024.131" filterUnits="userSpaceOnUse"><feOffset dx="-6" dy="-6" input="SourceAlpha"/><feGaussianBlur stdDeviation="4" result="h"/><feFlood flood-color="#0c3a2d" flood-opacity="0.6"/><feComposite operator="in" in2="h"/><feComposite in="SourceGraphic"/></filter><filter id="i" x="0" y="0" width="696.637" height="1125.867" filterUnits="userSpaceOnUse"><feOffset dx="6" dy="6" input="SourceAlpha"/><feGaussianBlur stdDeviation="4" result="j"/><feFlood flood-color="#0c3a2d" flood-opacity="0.6"/><feComposite operator="in" in2="j"/><feComposite in="SourceGraphic"/></filter><filter id="k" x="1457.481" y="18.456" width="681.45" height="1103.791" filterUnits="userSpaceOnUse"><feOffset dx="-6" dy="-6" input="SourceAlpha"/><feGaussianBlur stdDeviation="4" result="l"/><feFlood flood-color="#0c3a2d" flood-opacity="0.6"/><feComposite operator="in" in2="l"/><feComposite in="SourceGraphic"/></filter><filter id="m" x="1432.982" y="730.524" width="283.833" height="314.794" filterUnits="userSpaceOnUse"><feOffset dy="3" input="SourceAlpha"/><feGaussianBlur stdDeviation="3" result="n"/><feFlood flood-opacity="0.161"/><feComposite operator="in" in2="n"/><feComposite in="SourceGraphic"/></filter><filter id="o" x="1212.241" y="569.835" width="433.317" height="483.036" filterUnits="userSpaceOnUse"><feOffset dy="3" input="SourceAlpha"/><feGaussianBlur stdDeviation="3" result="p"/><feFlood flood-opacity="0.161"/><feComposite operator="in" in2="p"/><feComposite in="SourceGraphic"/></filter><filter id="q" x="1312.87" y="672.797" width="253.317" height="303.036" filterUnits="userSpaceOnUse"><feOffset dy="3" input="SourceAlpha"/><feGaussianBlur stdDeviation="3" result="r"/><feFlood flood-opacity="0.161"/><feComposite operator="in" in2="r"/><feComposite in="SourceGraphic"/></filter><filter id="s" x="1123.281" y="27.608" width="594.117" height="586.615" filterUnits="userSpaceOnUse"><feOffset dy="3" input="SourceAlpha"/><feGaussianBlur stdDeviation="3" result="t"/><feFlood flood-opacity="0.161"/><feComposite operator="in" in2="t"/><feComposite in="SourceGraphic"/></filter><filter id="u" x="1252.824" y="139.62" width="341.456" height="333.954" filterUnits="userSpaceOnUse"><feOffset dy="3" input="SourceAlpha"/><feGaussianBlur stdDeviation="3" result="v"/><feFlood flood-opacity="0.161"/><feComposite operator="in" in2="v"/><feComposite in="SourceGraphic"/></filter></defs><g transform="translate(6 6)"><g class="a" transform="translate(104.814 103.436)"><path class="k" d="M 1919.5 950.5 L 1399.4443359375 950.5 L 0.5 950.5 L 0.5 0.5 L 1919.5 0.5 L 1919.5 950.5 Z"/><path class="l" d="M 1 1 L 1 950 L 1399.4443359375 950 L 1919 950 L 1919 1 L 1 1 M 0 0 L 1920 0 L 1920 951 L 1399.4443359375 951 L 0 951 L 0 0 Z"/></g><g transform="translate(500.481 309.283) rotate(109)"><path class="b" d="M117.685,49.655c-2.392-.656-6.377-3.344-6.752-11.869S110,.34,67.044.006s-40.513,13.039-40.7,23.9c0,0,11.816-7.69,21.382-1.337S81.111,37.953,79.61,42.132s-8.065,3.343-15.567,0S27.844,30.6,27.844,30.6,2.523,57.511,6.649,79.911c0,0,16.13-14.042,21.569-15.212a81.288,81.288,0,0,0,16.506-6.018c2.251-1.337,24.945,2.842,24.945,5.182S52.6,69.547,46.787,69.714s-41.263,1-45.765,23.4,7.315,34.771,7.315,34.771,18.944-33.266,38.45-36.275,23.82,1.839,21.007,5.015-57.581,15.714-54.393,45.3c0,0,1.313,13.874,12.567,21.731,0,0-5.44-14.877,13.5-30.257S55.79,129.561,54.29,131.4s-33.573,25.242-21.757,50.317,33.386,27.248,33.386,27.248S63.48,199.1,68.732,195.09s39.95-12.371,42.014-18.222c0,0-3.939-31.594-11.441-44.3s-8.44-19.559-5.064-21.063,9.566,11.2,10.129,16.216,15.755,44.968,15.755,44.968l11.066-20.729s-15.568-40.287-17.443-45.3,1.876-10.532,6.19-3.009,19.694,44.8,19.694,44.8,5.251-15.379,5.251-20.9,11.066-9.194,8.816-15.379-27.384-34.436-27.384-34.436-.562-5.349,6.752-2.842S151.821,88.1,149.758,99.3c0,0,22.174-16.383,4.241-37.947,0,0-8.555-7.522-3.49-10.364s-8.253-17.218-17.068-9.863S122.562,50.992,117.685,49.655Z" transform="matrix(-0.927, -0.375, 0.375, -0.927, 149.278, 254.061)"/><g class="w" transform="matrix(-0.33, -0.95, 0.95, -0.33, -133.21, 581.53)"><path class="c" d="M117.685,49.655c-2.392-.656-6.377-3.344-6.752-11.869S110,.34,67.044.006s-40.513,13.039-40.7,23.9c0,0,11.816-7.69,21.382-1.337S81.111,37.953,79.61,42.132s-8.065,3.343-15.567,0S27.844,30.6,27.844,30.6,2.523,57.511,6.649,79.911c0,0,16.13-14.042,21.569-15.212a81.288,81.288,0,0,0,16.506-6.018c2.251-1.337,24.945,2.842,24.945,5.182S52.6,69.547,46.787,69.714s-41.263,1-45.765,23.4,7.315,34.771,7.315,34.771,18.944-33.266,38.45-36.275,23.82,1.839,21.007,5.015-57.581,15.714-54.393,45.3c0,0,1.313,13.874,12.567,21.731,0,0-5.44-14.877,13.5-30.257S55.79,129.561,54.29,131.4s-33.573,25.242-21.757,50.317,33.386,27.248,33.386,27.248S63.48,199.1,68.732,195.09s39.95-12.371,42.014-18.222c0,0-3.939-31.594-11.441-44.3s-8.44-19.559-5.064-21.063,9.566,11.2,10.129,16.216,15.755,44.968,15.755,44.968l11.066-20.729s-15.568-40.287-17.443-45.3,1.876-10.532,6.19-3.009,19.694,44.8,19.694,44.8,5.251-15.379,5.251-20.9,11.066-9.194,8.816-15.379-27.384-34.436-27.384-34.436-.562-5.349,6.752-2.842S151.821,88.1,149.758,99.3c0,0,22.174-16.383,4.241-37.947,0,0-8.555-7.522-3.49-10.364s-8.253-17.218-17.068-9.863S122.562,50.992,117.685,49.655Z" transform="matrix(0.66, -0.75, 0.75, 0.66, 212.5, 379.69)"/></g><path class="d" d="M117.685,49.655c-2.392-.656-6.377-3.344-6.752-11.869S110,.34,67.044.006s-40.513,13.039-40.7,23.9c0,0,11.816-7.69,21.382-1.337S81.111,37.953,79.61,42.132s-8.065,3.343-15.567,0S27.844,30.6,27.844,30.6,2.523,57.511,6.649,79.911c0,0,16.13-14.042,21.569-15.212a81.288,81.288,0,0,0,16.506-6.018c2.251-1.337,24.945,2.842,24.945,5.182S52.6,69.547,46.787,69.714s-41.263,1-45.765,23.4,7.315,34.771,7.315,34.771,18.944-33.266,38.45-36.275,23.82,1.839,21.007,5.015-57.581,15.714-54.393,45.3c0,0,1.313,13.874,12.567,21.731,0,0-5.44-14.877,13.5-30.257S55.79,129.561,54.29,131.4s-33.573,25.242-21.757,50.317,33.386,27.248,33.386,27.248S63.48,199.1,68.732,195.09s39.95-12.371,42.014-18.222c0,0-3.939-31.594-11.441-44.3s-8.44-19.559-5.064-21.063,9.566,11.2,10.129,16.216,15.755,44.968,15.755,44.968l11.066-20.729s-15.568-40.287-17.443-45.3,1.876-10.532,6.19-3.009,19.694,44.8,19.694,44.8,5.251-15.379,5.251-20.9,11.066-9.194,8.816-15.379-27.384-34.436-27.384-34.436-.562-5.349,6.752-2.842S151.821,88.1,149.758,99.3c0,0,22.174-16.383,4.241-37.947,0,0-8.555-7.522-3.49-10.364s-8.253-17.218-17.068-9.863S122.562,50.992,117.685,49.655Z" transform="matrix(-0.927, -0.375, 0.375, -0.927, 156.609, 256.993)"/></g><g transform="translate(401.969 367.99) rotate(88)"><path class="b" d="M94.938,35.862c-1.888-.433-4.995-2.343-5.09-8.7S90-.756,55.827.02s-32.549,10.7-32.958,18.811c0,0,9.586-6.021,17.046-1.509S66.114,28,64.821,31.158s-6.5,2.688-12.387.372S23.9,23.786,23.9,23.786,3.113,44.475,5.861,61.094c0,0,13.171-10.864,17.527-11.868a71.529,71.529,0,0,0,13.278-4.885c1.823-1.052,19.782,1.525,19.726,3.272s-13.717,4.649-18.348,4.913S5.185,54.259,1.068,71.084s4.99,25.774,4.99,25.774S21.927,71.579,37.521,68.868s18.911.8,16.6,3.241S7.922,85.211,9.753,107.216c0,0,.713,10.323,9.481,15.917,0,0-3.973-10.973,11.468-22.9S43.778,96.972,42.54,98.38s-27.318,19.639-18.514,38.07,25.915,19.537,25.915,19.537-1.7-7.3,2.57-10.421,32.085-10.186,33.867-14.6c0,0-2.38-23.484-8.046-32.786s-6.249-14.395-3.527-15.6,7.345,8.13,7.672,11.859S93.94,127.622,93.94,127.622l9.3-15.734S91.815,82.195,90.443,78.5s1.744-7.9,5-2.394,14.6,32.963,14.6,32.963,4.546-11.6,4.678-15.719,9.025-7.126,7.382-11.688-20.968-25.045-20.968-25.045-.32-3.979,5.441-2.282,14.609,9.408,12.7,17.815c0,0,18.036-12.755,4.281-28.42,0,0-6.627-5.41-2.53-7.651s-6.156-12.652-13.346-6.953S98.787,36.744,94.938,35.862Z" transform="matrix(-0.927, -0.375, 0.375, -0.927, 119.353, 192.85)"/><g class="v" transform="matrix(0.03, -1, 1, 0.03, -388, 394.67)"><path class="c" d="M94.938,35.862c-1.888-.433-4.995-2.343-5.09-8.7S90-.756,55.827.02s-32.549,10.7-32.958,18.811c0,0,9.586-6.021,17.046-1.509S66.114,28,64.821,31.158s-6.5,2.688-12.387.372S23.9,23.786,23.9,23.786,3.113,44.475,5.861,61.094c0,0,13.171-10.864,17.527-11.868a71.529,71.529,0,0,0,13.278-4.885c1.823-1.052,19.782,1.525,19.726,3.272s-13.717,4.649-18.348,4.913S5.185,54.259,1.068,71.084s4.99,25.774,4.99,25.774S21.927,71.579,37.521,68.868s18.911.8,16.6,3.241S7.922,85.211,9.753,107.216c0,0,.713,10.323,9.481,15.917,0,0-3.973-10.973,11.468-22.9S43.778,96.972,42.54,98.38s-27.318,19.639-18.514,38.07,25.915,19.537,25.915,19.537-1.7-7.3,2.57-10.421,32.085-10.186,33.867-14.6c0,0-2.38-23.484-8.046-32.786s-6.249-14.395-3.527-15.6,7.345,8.13,7.672,11.859S93.94,127.622,93.94,127.622l9.3-15.734S91.815,82.195,90.443,78.5s1.744-7.9,5-2.394,14.6,32.963,14.6,32.963,4.546-11.6,4.678-15.719,9.025-7.126,7.382-11.688-20.968-25.045-20.968-25.045-.32-3.979,5.441-2.282,14.609,9.408,12.7,17.815c0,0,18.036-12.755,4.281-28.42,0,0-6.627-5.41-2.53-7.651s-6.156-12.652-13.346-6.953S98.787,36.744,94.938,35.862Z" transform="translate(216.73 507.43) rotate(-70)"/></g><path class="d" d="M94.938,35.862c-1.888-.433-4.995-2.343-5.09-8.7S90-.756,55.827.02s-32.549,10.7-32.958,18.811c0,0,9.586-6.021,17.046-1.509S66.114,28,64.821,31.158s-6.5,2.688-12.387.372S23.9,23.786,23.9,23.786,3.113,44.475,5.861,61.094c0,0,13.171-10.864,17.527-11.868a71.529,71.529,0,0,0,13.278-4.885c1.823-1.052,19.782,1.525,19.726,3.272s-13.717,4.649-18.348,4.913S5.185,54.259,1.068,71.084s4.99,25.774,4.99,25.774S21.927,71.579,37.521,68.868s18.911.8,16.6,3.241S7.922,85.211,9.753,107.216c0,0,.713,10.323,9.481,15.917,0,0-3.973-10.973,11.468-22.9S43.778,96.972,42.54,98.38s-27.318,19.639-18.514,38.07,25.915,19.537,25.915,19.537-1.7-7.3,2.57-10.421,32.085-10.186,33.867-14.6c0,0-2.38-23.484-8.046-32.786s-6.249-14.395-3.527-15.6,7.345,8.13,7.672,11.859S93.94,127.622,93.94,127.622l9.3-15.734S91.815,82.195,90.443,78.5s1.744-7.9,5-2.394,14.6,32.963,14.6,32.963,4.546-11.6,4.678-15.719,9.025-7.126,7.382-11.688-20.968-25.045-20.968-25.045-.32-3.979,5.441-2.282,14.609,9.408,12.7,17.815c0,0,18.036-12.755,4.281-28.42,0,0-6.627-5.41-2.53-7.651s-6.156-12.652-13.346-6.953S98.787,36.744,94.938,35.862Z" transform="matrix(-0.927, -0.375, 0.375, -0.927, 126.684, 195.783)"/></g><g class="u" transform="matrix(1, 0, 0, 1, -6, -6)"><path class="e" d="M-18176-19333.5s30,20.166-126,76.166-250,57.332-284.666,152,6.668,148,48,274.668,24,186.664-10.668,281.332,27.021,137.111,27.021,137.111H-18771v-945.012Z" transform="translate(18881.81 19473.44)"/></g><g class="t" transform="matrix(1, 0, 0, 1, -6, -6)"><path class="e" d="M528.144,126.339s62.893,4.568,15.525.814-254.335,18.659-289,122.058,6.668,161.654,48,300,24,203.88-10.668,307.279,40,216.992,40,216.992l-298.905,3.4L84.13,103.069Z" transform="translate(2120.39 1158.23) rotate(177)"/></g><g class="s" transform="matrix(1, 0, 0, 1, -6, -6)"><path class="f" d="M-18176-19333.5l-193.334,107.52s-169.826,34.691-214.811,159.529,21.082,160.773,62.414,300.455,7.063,192.85-27.6,297.246,49.822,169.256,49.822,169.256l-11.934,1.256-125.311,13.17-105.393-996.377Z" transform="matrix(0.99, 0.1, -0.1, 0.99, 16734.17, 21192.68)"/></g><g class="r" transform="matrix(1, 0, 0, 1, -6, -6)"><path class="f" d="M655.522,132.052,468.552,151.7s-166.3-1.752-210.577,128.363,21.826,167.957,63.758,313.99,7.992,201.377-26.092,310.2,113.574,172.1,40.99,228.926-133.975,4.5-133.975,4.5l-100.2-953.326Z" transform="matrix(-0.99, -0.1, 0.1, -0.99, 2113.61, 1258.29)"/></g><g transform="translate(128.814 -4960.236)"><path class="b" d="M137.48,58.007c-2.794-.766-7.45-3.906-7.888-13.865S128.5.4,78.321.007,30.993,15.239,30.774,27.933c0,0,13.8-8.983,24.978-1.562S94.754,44.337,93,49.219s-9.422,3.906-18.186,0S32.527,35.744,32.527,35.744,2.948,67.184,7.768,93.353c0,0,18.844-16.4,25.2-17.771s16.653-5.468,19.282-7.03,29.141,3.32,29.141,6.054-19.939,6.64-26.731,6.835-48.2,1.172-53.462,27.34S9.74,149.4,9.74,149.4s22.13-38.862,44.917-42.377,27.827,2.148,24.54,5.859S11.931,131.239,15.656,165.8c0,0,1.534,16.208,14.68,25.386,0,0-6.355-17.38,15.775-35.346s19.063-4.492,17.31-2.344S24.2,182.989,38,212.282s39,31.831,39,31.831-2.849-11.522,3.287-16.208,46.67-14.451,49.08-21.287c0,0-4.6-36.909-13.366-51.75s-9.86-22.849-5.916-24.606,11.175,13.084,11.832,18.943,18.4,52.532,18.4,52.532l12.928-24.215S135.07,130.457,132.879,124.6s2.191-12.3,7.231-3.515,23.007,52.336,23.007,52.336,6.135-17.966,6.135-24.41,12.928-10.741,10.3-17.966-31.99-40.229-31.99-40.229-.657-6.249,7.888-3.32,21.91,15.428,19.5,28.512c0,0,25.9-19.138,4.954-44.33,0,0-9.993-8.788-4.077-12.108s-9.641-20.114-19.939-11.522S143.177,59.569,137.48,58.007Z" transform="matrix(-0.927, -0.375, 0.375, -0.927, 1472.99, 5984.128)"/><g class="q" transform="matrix(1, 0, 0, 1, -134.81, 4954.24)"><path class="c" d="M137.48,58.007c-2.794-.766-7.45-3.906-7.888-13.865S128.5.4,78.321.007,30.993,15.239,30.774,27.933c0,0,13.8-8.983,24.978-1.562S94.754,44.337,93,49.219s-9.422,3.906-18.186,0S32.527,35.744,32.527,35.744,2.948,67.184,7.768,93.353c0,0,18.844-16.4,25.2-17.771s16.653-5.468,19.282-7.03,29.141,3.32,29.141,6.054-19.939,6.64-26.731,6.835-48.2,1.172-53.462,27.34S9.74,149.4,9.74,149.4s22.13-38.862,44.917-42.377,27.827,2.148,24.54,5.859S11.931,131.239,15.656,165.8c0,0,1.534,16.208,14.68,25.386,0,0-6.355-17.38,15.775-35.346s19.063-4.492,17.31-2.344S24.2,182.989,38,212.282s39,31.831,39,31.831-2.849-11.522,3.287-16.208,46.67-14.451,49.08-21.287c0,0-4.6-36.909-13.366-51.75s-9.86-22.849-5.916-24.606,11.175,13.084,11.832,18.943,18.4,52.532,18.4,52.532l12.928-24.215S135.07,130.457,132.879,124.6s2.191-12.3,7.231-3.515,23.007,52.336,23.007,52.336,6.135-17.966,6.135-24.41,12.928-10.741,10.3-17.966-31.99-40.229-31.99-40.229-.657-6.249,7.888-3.32,21.91,15.428,19.5,28.512c0,0,25.9-19.138,4.954-44.33,0,0-9.993-8.788-4.077-12.108s-9.641-20.114-19.939-11.522S143.177,59.569,137.48,58.007Z" transform="matrix(-0.93, -0.37, 0.37, -0.93, 1616.37, 1033.32)"/></g><path class="d" d="M137.48,58.007c-2.794-.766-7.45-3.906-7.888-13.865S128.5.4,78.321.007,30.993,15.239,30.774,27.933c0,0,13.8-8.983,24.978-1.562S94.754,44.337,93,49.219s-9.422,3.906-18.186,0S32.527,35.744,32.527,35.744,2.948,67.184,7.768,93.353c0,0,18.844-16.4,25.2-17.771s16.653-5.468,19.282-7.03,29.141,3.32,29.141,6.054-19.939,6.64-26.731,6.835-48.2,1.172-53.462,27.34S9.74,149.4,9.74,149.4s22.13-38.862,44.917-42.377,27.827,2.148,24.54,5.859S11.931,131.239,15.656,165.8c0,0,1.534,16.208,14.68,25.386,0,0-6.355-17.38,15.775-35.346s19.063-4.492,17.31-2.344S24.2,182.989,38,212.282s39,31.831,39,31.831-2.849-11.522,3.287-16.208,46.67-14.451,49.08-21.287c0,0-4.6-36.909-13.366-51.75s-9.86-22.849-5.916-24.606,11.175,13.084,11.832,18.943,18.4,52.532,18.4,52.532l12.928-24.215S135.07,130.457,132.879,124.6s2.191-12.3,7.231-3.515,23.007,52.336,23.007,52.336,6.135-17.966,6.135-24.41,12.928-10.741,10.3-17.966-31.99-40.229-31.99-40.229-.657-6.249,7.888-3.32,21.91,15.428,19.5,28.512c0,0,25.9-19.138,4.954-44.33,0,0-9.993-8.788-4.077-12.108s-9.641-20.114-19.939-11.522S143.177,59.569,137.48,58.007Z" transform="matrix(-0.927, -0.375, 0.375, -0.927, 1481.554, 5987.554)"/></g><g transform="translate(-2203.598 -4708.84) rotate(-22)"><g class="p" transform="matrix(0.93, 0.37, -0.37, 0.93, 275.86, 5183.63)"><path class="g" d="M63.31,67.731c3.5-.895,9.321-4.561,9.869-16.19S74.55.464,137.327.008s59.214,17.786,59.488,32.607c0,0-17.27-10.489-31.251-1.824s-48.8,20.978-46.6,26.679,11.788,4.56,22.753,0,52.909-15.734,52.909-15.734S231.63,78.447,225.6,109c0,0-23.576-19.154-31.526-20.75s-20.835-6.384-24.124-8.209-36.46,3.876-36.46,7.069,24.946,7.753,33.445,7.981,60.31,1.368,66.889,31.923-10.691,47.429-10.691,47.429-27.688-45.377-56.2-49.481-34.816,2.508-30.7,6.841,84.16,21.435,79.5,61.795c0,0-1.919,18.925-18.367,29.642,0,0,7.95-20.293-19.737-41.271s-23.85-5.245-21.657-2.737,49.07,34.431,31.8,68.635-48.8,37.168-48.8,37.168,3.564-13.453-4.112-18.926-58.391-16.874-61.406-24.855c0,0,5.757-43.1,16.723-60.425s12.336-26.679,7.4-28.731-13.982,15.277-14.8,22.119-23.027,61.338-23.027,61.338L43.572,207.281s22.753-54.953,25.495-61.794-2.742-14.366-9.047-4.1-28.785,61.11-28.785,61.11-7.675-20.978-7.675-28.5S7.386,161.448,10.676,153.011,50.7,106.039,50.7,106.039s.822-7.3-9.869-3.876-27.413,18.014-24.4,33.292c0,0-32.409-22.346-6.2-51.761,0,0,12.5-10.261,5.1-14.137S27.4,46.069,40.282,56.1,56.182,69.555,63.31,67.731Z" transform="matrix(-1, 0, 0, -1, 1546.56, 950.87)"/></g><g class="o" transform="matrix(0.93, 0.37, -0.37, 0.93, 275.86, 5183.63)"><path class="c" d="M63.31,67.731c3.5-.895,9.321-4.561,9.869-16.19S74.55.464,137.327.008s59.214,17.786,59.488,32.607c0,0-17.27-10.489-31.251-1.824s-48.8,20.978-46.6,26.679,11.788,4.56,22.753,0,52.909-15.734,52.909-15.734S231.63,78.447,225.6,109c0,0-23.576-19.154-31.526-20.75s-20.835-6.384-24.124-8.209-36.46,3.876-36.46,7.069,24.946,7.753,33.445,7.981,60.31,1.368,66.889,31.923-10.691,47.429-10.691,47.429-27.688-45.377-56.2-49.481-34.816,2.508-30.7,6.841,84.16,21.435,79.5,61.795c0,0-1.919,18.925-18.367,29.642,0,0,7.95-20.293-19.737-41.271s-23.85-5.245-21.657-2.737,49.07,34.431,31.8,68.635-48.8,37.168-48.8,37.168,3.564-13.453-4.112-18.926-58.391-16.874-61.406-24.855c0,0,5.757-43.1,16.723-60.425s12.336-26.679,7.4-28.731-13.982,15.277-14.8,22.119-23.027,61.338-23.027,61.338L43.572,207.281s22.753-54.953,25.495-61.794-2.742-14.366-9.047-4.1-28.785,61.11-28.785,61.11-7.675-20.978-7.675-28.5S7.386,161.448,10.676,153.011,50.7,106.039,50.7,106.039s.822-7.3-9.869-3.876-27.413,18.014-24.4,33.292c0,0-32.409-22.346-6.2-51.761,0,0,12.5-10.261,5.1-14.137S27.4,46.069,40.282,56.1,56.182,69.555,63.31,67.731Z" transform="matrix(-1, 0, 0, -1, 1557.19, 963.83)"/></g><path class="h" d="M63.31,67.731c3.5-.895,9.321-4.561,9.869-16.19S74.55.464,137.327.008s59.214,17.786,59.488,32.607c0,0-17.27-10.489-31.251-1.824s-48.8,20.978-46.6,26.679,11.788,4.56,22.753,0,52.909-15.734,52.909-15.734S231.63,78.447,225.6,109c0,0-23.576-19.154-31.526-20.75s-20.835-6.384-24.124-8.209-36.46,3.876-36.46,7.069,24.946,7.753,33.445,7.981,60.31,1.368,66.889,31.923-10.691,47.429-10.691,47.429-27.688-45.377-56.2-49.481-34.816,2.508-30.7,6.841,84.16,21.435,79.5,61.795c0,0-1.919,18.925-18.367,29.642,0,0,7.95-20.293-19.737-41.271s-23.85-5.245-21.657-2.737,49.07,34.431,31.8,68.635-48.8,37.168-48.8,37.168,3.564-13.453-4.112-18.926-58.391-16.874-61.406-24.855c0,0,5.757-43.1,16.723-60.425s12.336-26.679,7.4-28.731-13.982,15.277-14.8,22.119-23.027,61.338-23.027,61.338L43.572,207.281s22.753-54.953,25.495-61.794-2.742-14.366-9.047-4.1-28.785,61.11-28.785,61.11-7.675-20.978-7.675-28.5S7.386,161.448,10.676,153.011,50.7,106.039,50.7,106.039s.822-7.3-9.869-3.876-27.413,18.014-24.4,33.292c0,0-32.409-22.346-6.2-51.761,0,0,12.5-10.261,5.1-14.137S27.4,46.069,40.282,56.1,56.182,69.555,63.31,67.731Z" transform="matrix(-0.927, -0.375, 0.375, -0.927, 1358.603, 6660.615)"/></g><g transform="translate(-862.999 -4291.162) rotate(-11)"><g class="n" transform="matrix(0.98, 0.19, -0.19, 0.98, 23.61, 4369.95)"><path class="i" d="M55.423,59.293c3.06-.783,8.16-3.993,8.64-14.173S65.262.407,120.218.007s51.837,15.57,52.077,28.545c0,0-15.119-9.182-27.358-1.6S102.22,45.32,104.14,50.31s10.319,3.992,19.918,0,46.317-13.774,46.317-13.774,32.4,32.137,27.118,58.886c0,0-20.639-16.768-27.6-18.165s-18.239-5.589-21.119-7.186-31.918,3.393-31.918,6.188,21.839,6.787,29.278,6.986,52.8,1.2,58.556,27.946-9.359,41.52-9.359,41.52-24.238-39.724-49.2-43.317-30.478,2.2-26.878,5.989,73.675,18.764,69.6,54.1c0,0-1.68,16.567-16.079,25.949,0,0,6.96-17.765-17.278-36.129s-20.879-4.591-18.959-2.4,42.957,30.142,27.838,60.084-42.717,32.537-42.717,32.537,3.12-11.777-3.6-16.568S66.942,218.186,64.3,211.2c0,0,5.04-37.727,14.639-52.9s10.8-23.356,6.48-25.152-12.24,13.374-12.96,19.363S52.3,206.21,52.3,206.21L38.144,181.457s19.919-48.107,22.319-54.1-2.4-12.576-7.919-3.593-25.2,53.5-25.2,53.5-6.719-18.364-6.719-24.952S6.466,141.335,9.346,133.949,44.383,92.828,44.383,92.828s.72-6.388-8.64-3.394-24,15.77-21.358,29.144c0,0-28.372-19.562-5.426-45.313,0,0,10.946-8.983,4.466-12.376s10.56-20.56,21.839-11.777S49.183,60.89,55.423,59.293Z" transform="matrix(0.62, 0.79, -0.79, 0.62, 1455.24, 159.94)"/></g><g class="m" transform="matrix(0.98, 0.19, -0.19, 0.98, 23.61, 4369.95)"><path class="c" d="M55.423,59.293c3.06-.783,8.16-3.993,8.64-14.173S65.262.407,120.218.007s51.837,15.57,52.077,28.545c0,0-15.119-9.182-27.358-1.6S102.22,45.32,104.14,50.31s10.319,3.992,19.918,0,46.317-13.774,46.317-13.774,32.4,32.137,27.118,58.886c0,0-20.639-16.768-27.6-18.165s-18.239-5.589-21.119-7.186-31.918,3.393-31.918,6.188,21.839,6.787,29.278,6.986,52.8,1.2,58.556,27.946-9.359,41.52-9.359,41.52-24.238-39.724-49.2-43.317-30.478,2.2-26.878,5.989,73.675,18.764,69.6,54.1c0,0-1.68,16.567-16.079,25.949,0,0,6.96-17.765-17.278-36.129s-20.879-4.591-18.959-2.4,42.957,30.142,27.838,60.084-42.717,32.537-42.717,32.537,3.12-11.777-3.6-16.568S66.942,218.186,64.3,211.2c0,0,5.04-37.727,14.639-52.9s10.8-23.356,6.48-25.152-12.24,13.374-12.96,19.363S52.3,206.21,52.3,206.21L38.144,181.457s19.919-48.107,22.319-54.1-2.4-12.576-7.919-3.593-25.2,53.5-25.2,53.5-6.719-18.364-6.719-24.952S6.466,141.335,9.346,133.949,44.383,92.828,44.383,92.828s.72-6.388-8.64-3.394-24,15.77-21.358,29.144c0,0-28.372-19.562-5.426-45.313,0,0,10.946-8.983,4.466-12.376s10.56-20.56,21.839-11.777S49.183,60.89,55.423,59.293Z" transform="matrix(0.62, 0.79, -0.79, 0.62, 1458.45, 145.62)"/></g><path class="h" d="M55.423,59.293c3.06-.783,8.16-3.993,8.64-14.173S65.262.407,120.218.007s51.837,15.57,52.077,28.545c0,0-15.119-9.182-27.358-1.6S102.22,45.32,104.14,50.31s10.319,3.992,19.918,0,46.317-13.774,46.317-13.774,32.4,32.137,27.118,58.886c0,0-20.639-16.768-27.6-18.165s-18.239-5.589-21.119-7.186-31.918,3.393-31.918,6.188,21.839,6.787,29.278,6.986,52.8,1.2,58.556,27.946-9.359,41.52-9.359,41.52-24.238-39.724-49.2-43.317-30.478,2.2-26.878,5.989,73.675,18.764,69.6,54.1c0,0-1.68,16.567-16.079,25.949,0,0,6.96-17.765-17.278-36.129s-20.879-4.591-18.959-2.4,42.957,30.142,27.838,60.084-42.717,32.537-42.717,32.537,3.12-11.777-3.6-16.568S66.942,218.186,64.3,211.2c0,0,5.04-37.727,14.639-52.9s10.8-23.356,6.48-25.152-12.24,13.374-12.96,19.363S52.3,206.21,52.3,206.21L38.144,181.457s19.919-48.107,22.319-54.1-2.4-12.576-7.919-3.593-25.2,53.5-25.2,53.5-6.719-18.364-6.719-24.952S6.466,141.335,9.346,133.949,44.383,92.828,44.383,92.828s.72-6.388-8.64-3.394-24,15.77-21.358,29.144c0,0-28.372-19.562-5.426-45.313,0,0,10.946-8.983,4.466-12.376s10.56-20.56,21.839-11.777S49.183,60.89,55.423,59.293Z" transform="matrix(0.454, 0.891, -0.891, 0.454, 1427.477, 4791.185)"/></g><path class="j" d="M6891,2898s47.675,76.667,277.048,116.667,465.415-100,750.8,50.667,404.069,13.333,590.769,124S8811,3210.667,8811,3210.667V2881.333Z" transform="translate(-6786.186 -2847.564)"/></g></svg>