<svg xmlns="http://www.w3.org/2000/svg" xmlns:xlink="http://www.w3.org/1999/xlink" width="86" height="86" viewBox="0 0 86 86"><defs><style>.a{fill:url(#a);}.b,.c,.f{fill:none;}.b,.c{stroke:#fff;stroke-width:2px;}.b{opacity:0.2;}.c{opacity:0.28;}.d{fill:#fff;}.e{stroke:none;}.g{filter:url(#d);}.h{filter:url(#b);}</style><linearGradient id="a" x1="0.032" y1="0.03" x2="0.95" y2="1" gradientUnits="objectBoundingBox"><stop offset="0" stop-color="#e8ebf2"/><stop offset="1" stop-color="#f2f3f7"/></linearGradient><filter id="b" x="0" y="0" width="86" height="86" filterUnits="userSpaceOnUse"><feOffset dx="10" dy="10" input="SourceAlpha"/><feGaussianBlur stdDeviation="8" result="c"/><feFlood flood-color="#0f296b" flood-opacity="0.118"/><feComposite operator="in" in2="c"/><feComposite in="SourceGraphic"/></filter><filter id="d" x="13.307" y="17.741" width="36.385" height="36.385" filterUnits="userSpaceOnUse"><feOffset dy="3" input="SourceAlpha"/><feGaussianBlur stdDeviation="3" result="e"/><feFlood flood-color="#0f296b" flood-opacity="0.118"/><feComposite operator="in" in2="e"/><feComposite in="SourceGraphic"/></filter></defs><g transform="translate(14 14)"><g class="h" transform="matrix(1, 0, 0, 1, -14, -14)"><rect class="a" width="38" height="38" rx="12" transform="translate(52 52) rotate(180)"/></g><g class="b" transform="translate(38 38) rotate(180)"><rect class="e" width="38" height="38" rx="11"/><rect class="f" x="1" y="1" width="36" height="36" rx="10"/></g><g class="c" transform="translate(38 38) rotate(180)"><rect class="e" width="38" height="38" rx="10"/><rect class="f" x="1" y="1" width="36" height="36" rx="9"/></g><g class="g" transform="matrix(1, 0, 0, 1, -14, -14)"><path class="d" d="M10.92,13V2.08H0V0H13V13Z" transform="translate(31.5 23.74) rotate(45)"/></g></g></svg>