<svg xmlns="http://www.w3.org/2000/svg" xmlns:xlink="http://www.w3.org/1999/xlink" width="128" height="128" viewBox="0 0 128 128"><defs><style>.a,.e{fill:#fff;}.a{opacity:0.8;}.b{fill:url(#a);}.c,.d,.g{fill:none;}.c,.d{stroke:#fff;stroke-width:2px;}.c{opacity:0.2;}.d{opacity:0.28;}.f{stroke:none;}.h{filter:url(#d);}.i{filter:url(#b);}</style><linearGradient id="a" x1="0.032" y1="0.03" x2="0.95" y2="1" gradientUnits="objectBoundingBox"><stop offset="0" stop-color="#e8ebf2"/><stop offset="1" stop-color="#f2f3f7"/></linearGradient><filter id="b" x="24" y="24" width="86" height="86" filterUnits="userSpaceOnUse"><feOffset dx="10" dy="10" input="SourceAlpha"/><feGaussianBlur stdDeviation="8" result="c"/><feFlood flood-color="#0f296b" flood-opacity="0.118"/><feComposite operator="in" in2="c"/><feComposite in="SourceGraphic"/></filter><filter id="d" x="37.307" y="41.741" width="36.385" height="36.385" filterUnits="userSpaceOnUse"><feOffset dy="3" input="SourceAlpha"/><feGaussianBlur stdDeviation="3" result="e"/><feFlood flood-color="#0f296b" flood-opacity="0.118"/><feComposite operator="in" in2="e"/><feComposite in="SourceGraphic"/></filter></defs><g transform="translate(872 8969) rotate(180)"><rect class="a" width="38" height="38" rx="19" transform="translate(789 8886)"/><g class="i" transform="matrix(-1, 0, 0, -1, 872, 8969)"><rect class="b" width="38" height="38" rx="12" transform="translate(76 76) rotate(180)"/></g><g class="c" transform="translate(796 8893)"><rect class="f" width="38" height="38" rx="11"/><rect class="g" x="1" y="1" width="36" height="36" rx="10"/></g><g class="d" transform="translate(796 8893)"><rect class="f" width="38" height="38" rx="10"/><rect class="g" x="1" y="1" width="36" height="36" rx="9"/></g><g class="h" transform="matrix(-1, 0, 0, -1, 872, 8969)"><path class="e" d="M10.92,13V2.08H0V0H13V13Z" transform="translate(55.5 47.74) rotate(45)"/></g></g></svg>