<svg xmlns="http://www.w3.org/2000/svg" xmlns:xlink="http://www.w3.org/1999/xlink" width="682" height="445" viewBox="0 0 682 445"><defs><style>.a{fill:rgba(75,34,148,0.28);}.b{fill:rgba(94,39,166,0.42);}.c,.d{fill:url(#a);}.d{opacity:0.51;mix-blend-mode:multiply;}.d,.g,.h,.i,.j,.r,.s,.t{isolation:isolate;}.e{fill:#6f31dd;}.f,.k{fill:#fff;}.f{font-size:20px;}.f,.w{font-family:Montserrat-Bold, Montserrat;font-weight:700;}.g{fill:#d790ff;}.g,.h,.i,.j,.s,.t{mix-blend-mode:screen;}.h,.y{fill:#ffd979;}.i{fill:#a2f1dc;}.j{fill:#2654ec;}.l{fill:url(#c);}.aa,.m{fill:none;}.m{stroke:#895de2;stroke-width:8px;}.n{fill:#ffde0e;}.o{fill:#ff3434;}.p{fill:#479c39;}.q,.s,.t{fill:#895de2;}.r{fill:#be9dff;mix-blend-mode:overlay;}.s{opacity:0.26;}.t{opacity:0.29;}.u{fill:#c8b9e7;}.v{fill:#d197ff;}.w{fill:#332c2c;font-size:7px;}.x{fill:#dec8f1;}.z{stroke:none;}.ab{filter:url(#f);}.ac{filter:url(#d);}</style><linearGradient id="a" y1="-0.075" x2="0.596" y2="0.711" gradientUnits="objectBoundingBox"><stop offset="0" stop-color="#c1a0ed"/><stop offset="1" stop-color="#876ded"/></linearGradient><linearGradient id="c" x1="-0.031" y1="-0.041" x2="1.057" y2="0.968" gradientUnits="objectBoundingBox"><stop offset="0" stop-color="#c99fff"/><stop offset="1" stop-color="#6e43e2"/></linearGradient><filter id="d" x="206.5" y="93.5" width="462" height="332" filterUnits="userSpaceOnUse"><feOffset dy="-6" input="SourceAlpha"/><feGaussianBlur stdDeviation="12.5" result="e"/><feFlood flood-color="#8124c8" flood-opacity="0.239"/><feComposite operator="in" in2="e"/><feComposite in="SourceGraphic"/></filter><filter id="f" x="205" y="163" width="135" height="183" filterUnits="userSpaceOnUse"><feOffset dx="6" dy="6" input="SourceAlpha"/><feGaussianBlur stdDeviation="6" result="g"/><feFlood flood-opacity="0.161"/><feComposite operator="in" in2="g"/><feComposite in="SourceGraphic"/></filter></defs><g transform="translate(54 54)"><rect class="a" width="387" height="257" rx="19" transform="translate(190 83)"/><rect class="b" width="382" height="253" rx="22"/><rect class="c" width="382" height="253" rx="13"/><path class="d" d="M0,0H148a13,13,0,0,1,13,13V240a13,13,0,0,1-13,13H0a0,0,0,0,1,0,0V0A0,0,0,0,1,0,0Z" transform="translate(221)"/><rect class="e" width="103" height="99" transform="translate(250 35)"/><text class="f" transform="translate(33 54)"><tspan x="0" y="0">hello world?</tspan><tspan x="0" y="25">&lt;/&gt;</tspan></text><rect class="g" width="143" height="7" transform="translate(33 101)"/><rect class="h" width="143" height="7" transform="translate(33 156)"/><rect class="i" width="38" height="6" transform="translate(33 170)"/><rect class="j" width="38" height="6" transform="translate(77 170)"/><rect class="j" width="78" height="7" transform="translate(33 114)"/><rect class="h" width="78" height="7" transform="translate(33 182)"/><rect class="i" width="78" height="8" transform="translate(66 126)"/><rect class="g" width="78" height="8" transform="translate(66 194)"/><rect class="j" width="29" height="7" transform="translate(33 126)"/><rect class="i" width="29" height="7" transform="translate(33 194)"/><rect class="k" width="387" height="257" rx="22" transform="translate(190 83)"/><path class="l" d="M0,0H259a22,22,0,0,1,22,22V235a22,22,0,0,1-22,22H0a0,0,0,0,1,0,0V0A0,0,0,0,1,0,0Z" transform="translate(296 83)"/><g class="ac" transform="matrix(1, 0, 0, 1, -54, -54)"><g class="m" transform="translate(244 137)"><rect class="z" width="387" height="257" rx="19"/><rect class="aa" x="4" y="4" width="379" height="249" rx="15"/></g></g><circle class="n" cx="2" cy="2" r="2" transform="translate(213 95)"/><circle class="o" cx="2" cy="2" r="2" transform="translate(205 95)"/><circle class="p" cx="2" cy="2" r="2" transform="translate(221 95)"/><path class="q" d="M0,0H419a0,0,0,0,1,0,0V0a18,18,0,0,1-18,18H18A18,18,0,0,1,0,0V0A0,0,0,0,1,0,0Z" transform="translate(174 322)"/><rect class="r" width="369" height="12" transform="translate(200 310)"/><rect class="q" width="81" height="11" rx="5.5" transform="translate(205 137)"/><rect class="s" width="110.656" height="35.338" rx="17.669" transform="translate(442.914 195.08) rotate(-45)"/><rect class="t" width="146.351" height="21.774" rx="10.887" transform="translate(427.236 272.106) rotate(-45)"/><rect class="q" width="81" height="13" rx="6.5" transform="translate(205 156)"/><rect class="q" width="81" height="12" rx="6" transform="translate(205 178)"/><rect class="u" width="81" height="105" rx="25" transform="translate(205 200)"/><g transform="translate(163.025 120.62)"><g class="ab" transform="matrix(1, 0, 0, 1, -217.03, -174.62)"><rect class="k" width="99" height="147" rx="17" transform="translate(217 175)"/></g><circle class="v" cx="25.5" cy="25.5" r="25.5" transform="translate(23.975 18.38)"/><text class="w" transform="translate(46.975 83.38)"><tspan x="-14.147" y="0">DESIGN</tspan><tspan x="-12.803" y="7">TREND</tspan></text><rect class="x" width="70" height="8" transform="translate(13.975 101.38)"/><rect class="x" width="70" height="7" transform="translate(13.975 114.38)"/></g><circle class="y" cx="12" cy="12" r="12" transform="translate(305 178)"/><text class="f" transform="translate(317 205)"><tspan x="0" y="0">WEB DESIGN &amp;</tspan><tspan x="0" y="25">WEB PUBLISHING</tspan></text></g></svg>