<svg xmlns="http://www.w3.org/2000/svg" xmlns:xlink="http://www.w3.org/1999/xlink" width="374" height="280" viewBox="0 0 374 280"><defs><style>.a{opacity:0.79;}.a,.d,.g,.h,.i,.j,.s,.t,.u{isolation:isolate;}.b{fill:rgba(94,39,166,0.42);}.c,.d{fill:url(#a);}.d{opacity:0.51;mix-blend-mode:multiply;}.e{fill:#6f31dd;}.f,.l{fill:#fff;}.f{font-size:10px;font-family:Montserrat-Bold, Montserrat;font-weight:700;}.g,.w{fill:#ffd979;}.g,.h,.i,.j,.t,.u{mix-blend-mode:screen;}.h{fill:#a2f1dc;}.i{fill:#2654ec;}.j{fill:#d790ff;}.k{fill:rgba(75,34,148,0.28);}.m{fill:url(#c);}.n,.y{fill:none;}.n{stroke:#895de2;stroke-width:8px;}.o{fill:#ffde0e;}.p{fill:#479c39;}.q{fill:#ff3434;}.r,.t,.u{fill:#895de2;}.s{fill:#be9dff;mix-blend-mode:overlay;}.t{opacity:0.26;}.u{opacity:0.29;}.v{fill:#c8b9e7;}.x{stroke:none;}.z{filter:url(#d);}</style><linearGradient id="a" y1="-0.075" x2="0.596" y2="0.711" gradientUnits="objectBoundingBox"><stop offset="0" stop-color="#c1a0ed"/><stop offset="1" stop-color="#876ded"/></linearGradient><linearGradient id="c" x1="-0.031" y1="-0.041" x2="1.057" y2="0.968" gradientUnits="objectBoundingBox"><stop offset="0" stop-color="#c99fff"/><stop offset="1" stop-color="#6e43e2"/></linearGradient><filter id="d" x="74.5" y="7.5" width="286" height="216" filterUnits="userSpaceOnUse"><feOffset dy="-6" input="SourceAlpha"/><feGaussianBlur stdDeviation="12.5" result="e"/><feFlood flood-color="#8124c8" flood-opacity="0.239"/><feComposite operator="in" in2="e"/><feComposite in="SourceGraphic"/></filter></defs><g class="a" transform="translate(54 51)"><g transform="translate(12796 12705)"><rect class="b" width="209" height="138" rx="22" transform="translate(-12796 -12668)"/><rect class="c" width="209" height="138" rx="8" transform="translate(-12796 -12668)"/><rect class="d" width="88" height="138" rx="7" transform="translate(-12675 -12668)"/><rect class="e" width="56" height="54" transform="translate(-12659 -12649)"/><text class="f" transform="translate(-12778 -12639)"><tspan x="0" y="0"></tspan><tspan x="0" y="13"></tspan><tspan x="0" y="26">&lt;/&gt;</tspan></text><rect class="g" width="78" height="4" transform="translate(-12778 -12583)"/><rect class="h" width="21" height="3" transform="translate(-12778 -12575)"/><rect class="i" width="21" height="3" transform="translate(-12754 -12575)"/><rect class="i" width="43" height="4" transform="translate(-12778 -12606)"/><rect class="g" width="43" height="3" transform="translate(-12778 -12568)"/><rect class="h" width="43" height="4" transform="translate(-12760 -12599)"/><rect class="j" width="43" height="5" transform="translate(-12760 -12562)"/><rect class="i" width="16" height="4" transform="translate(-12778 -12599)"/><rect class="h" width="16" height="4" transform="translate(-12778 -12562)"/></g><g transform="translate(12807 12632)"><rect class="k" width="211" height="141" rx="19" transform="translate(-12749 -12632)"/><rect class="l" width="211" height="141" rx="11" transform="translate(-12749 -12632)"/><path class="m" d="M0,0H131a22,22,0,0,1,22,22v97a22,22,0,0,1-22,22H0a0,0,0,0,1,0,0V0A0,0,0,0,1,0,0Z" transform="translate(-12691 -12632)"/><g class="z" transform="matrix(1, 0, 0, 1, -12861, -12683)"><g class="n" transform="translate(112 51)"><rect class="x" width="211" height="141" rx="7"/><rect class="y" x="4" y="4" width="203" height="133" rx="3"/></g></g><circle class="o" cx="1" cy="1" r="1" transform="translate(-12732 -12620)"/><circle class="p" cx="1" cy="1" r="1" transform="translate(-12728 -12620)"/><circle class="q" cx="1" cy="1" r="1" transform="translate(-12736 -12620)"/><path class="r" d="M0,0H229a0,0,0,0,1,0,0V0a10,10,0,0,1-10,10H10A10,10,0,0,1,0,0V0A0,0,0,0,1,0,0Z" transform="translate(-12758 -12501)"/><rect class="s" width="194" height="7" transform="translate(-12740 -12508)"/><rect class="r" width="38" height="6" rx="3" transform="translate(-12735 -12602)"/><rect class="t" width="60.56" height="19.34" rx="9.67" transform="translate(-12611.063 -12570.539) rotate(-45)"/><rect class="u" width="80.096" height="11.917" rx="5.958" transform="translate(-12619.645 -12528.384) rotate(-45)"/><rect class="r" width="38" height="7" rx="3.5" transform="translate(-12735 -12592)"/><rect class="r" width="38" height="7" rx="3.5" transform="translate(-12735 -12580)"/><rect class="v" width="44" height="58" rx="9" transform="translate(-12738 -12567)"/><ellipse class="w" cx="7" cy="6.5" rx="7" ry="6.5" transform="translate(-12687 -12580)"/><text class="f" transform="translate(-12680 -12566)"><tspan x="0" y="0">WEB </tspan><tspan x="0" y="13">DESIGN &amp;</tspan><tspan x="0" y="26">WEB </tspan><tspan x="0" y="39">PUBLISHING</tspan></text></g></g></svg>